Coordinates
version=1
nRows=16
nColumns=40
inDegrees=yes

Units are S.I. units (second, meters, Newtons, ...)
Angles are in degrees.

endheader
time	pelvis_tilt	pelvis_list	pelvis_rotation	pelvis_tx	pelvis_ty	pelvis_tz	hip_flexion_r	hip_adduction_r	hip_rotation_r	knee_angle_r	knee_angle_r_beta	ankle_angle_r	subtalar_angle_r	mtp_angle_r	hip_flexion_l	hip_adduction_l	hip_rotation_l	knee_angle_l	knee_angle_l_beta	ankle_angle_l	subtalar_angle_l	mtp_angle_l	lumbar_extension	lumbar_bending	lumbar_rotation	arm_flex_r	arm_add_r	arm_rot_r	elbow_flex_r	pro_sup_r	wrist_flex_r	wrist_dev_r	arm_flex_l	arm_add_l	arm_rot_l	elbow_flex_l	pro_sup_l	wrist_flex_l	wrist_dev_l
      0.74000000	      0.80679427	     -0.70419093	     -1.37665425	     -0.48968680	      0.88901118	     -1.03664862	     24.07581193	     -1.11568191	    -21.87191116	    -16.57005677	     -0.28920205	     -3.45888099	      3.10276174	     -6.38500938	     -9.81688191	     -2.72786632	     13.86679910	    -12.21159812	     -0.21313259	      8.86490404	    -12.07451143	     -4.98907572	     -9.31064807	      2.22928340	     -3.90471032	      7.49800161	     -6.78681722	     16.91957125	     15.83539071	     89.95437384	      0.00000000	      0.00000000	     19.18287750	     13.13987302	    -10.01742148	     29.92891512	     89.95437384	      0.00000000	      0.00000000
      0.75000000	      1.12750579	     -0.89895512	     -0.91274907	     -0.48142055	      0.88872118	     -1.03651271	     23.55966982	     -0.93166291	    -22.64092978	    -16.25966161	     -0.28378463	     -3.56194751	      3.29325887	     -6.40078941	    -10.59139762	     -2.32195603	     13.57686626	    -12.52651384	     -0.21862891	      8.96156680	    -12.48642780	     -5.09278525	     -9.58651708	      2.46297358	     -4.28756391	      7.56430355	     -6.74419775	     16.79430959	     15.59161745	     89.95437384	      0.00000000	      0.00000000	     18.89668694	     13.06070380	     -9.47689430	     30.75461320	     89.95437384	      0.00000000	      0.00000000
      0.76000000	      0.96557308	     -0.75674429	     -0.73914490	     -0.47365734	      0.88763636	     -1.03607532	     23.85160565	     -0.98619766	    -22.35029317	    -16.58888913	     -0.28953073	     -3.58461512	      3.17151265	     -6.27063418	    -10.69069254	     -2.34614795	     13.36241599	    -13.03731041	     -0.22754399	      8.78936122	    -12.12030396	     -5.01279523	     -9.35918340	      2.28247838	     -4.19844821	      7.31743273	     -6.84038719	     16.73542455	     15.82981409	     89.95437384	      0.00000000	      0.00000000	     18.86319061	     12.89098434	     -9.41331880	     31.16006861	     89.95437384	      0.00000000	      0.00000000
      0.77000000	      0.93379316	     -0.67531461	     -0.54700200	     -0.46524656	      0.88675070	     -1.03572646	     23.84264195	     -1.01350432	    -22.40114557	    -16.92281237	     -0.29535879	     -3.55245744	      2.90778910	     -6.18569619	    -11.14963298	     -2.34158786	     13.10579828	    -13.20127014	     -0.23040563	      9.07647676	    -12.28094036	     -5.07435175	     -9.18309801	      2.18843880	     -4.18414829	      7.25843932	     -6.85011818	     16.82114938	     15.51782069	     89.95437384	      0.00000000	      0.00000000	     18.69225519	     12.70110728	     -9.32805591	     31.49439451	     89.95437384	      0.00000000	      0.00000000
      0.78000000	      1.02654172	     -0.67467766	     -0.19828559	     -0.45675590	      0.88604059	     -1.03545365	     23.69614914	     -1.00863802	    -22.29511455	    -17.55608711	     -0.30641152	     -3.55459951	      2.46829670	     -6.04959407	    -11.62736087	     -2.19034828	     12.76828245	    -13.61996534	     -0.23771324	      9.14121479	    -12.33373649	     -5.10006419	     -9.17406319	      2.20909749	     -4.37681835	      7.18906394	     -6.88371796	     16.98742611	     15.42174880	     89.95437384	      0.00000000	      0.00000000	     18.37555385	     12.58118754	     -9.13233332	     32.06234432	     89.95437384	      0.00000000	      0.00000000
      0.79000000	      0.82114151	     -0.54245305	      0.06310752	     -0.44828736	      0.88494258	     -1.03499642	     23.74538210	     -1.04707662	    -21.84745624	    -18.04417814	     -0.31493032	     -3.63677806	      2.35206423	     -5.90436045	    -11.66405439	     -2.17639418	     12.52185559	    -14.21849388	     -0.24815953	      8.88985422	    -11.89157154	     -4.99935790	     -8.84327972	      2.04048941	     -4.33164847	      6.81487954	     -6.99286836	     16.93287273	     15.74105956	     89.95437384	      0.00000000	      0.00000000	     18.13295894	     12.39010584	     -9.07642686	     32.42919773	     89.95437384	      0.00000000	      0.00000000
      0.80000000	      1.21210719	     -0.87127546	      0.65781252	     -0.43907706	      0.88483335	     -1.03481861	     22.86994156	     -0.68955472	    -22.05020161	    -18.25886322	     -0.31867728	     -4.98641997	      1.10422205	     -5.49272461	    -12.46190755	     -1.54374537	     12.31199484	    -14.68610522	     -0.25632089	      8.87036170	    -12.38279008	     -5.16307038	     -9.09946377	      2.45734100	     -4.87336062	      6.86882859	     -7.10603629	     17.97128415	     15.46940257	     89.95437384	      0.00000000	      0.00000000	     17.53254623	     12.30657057	     -8.66632769	     33.10972921	     89.95437384	      0.00000000	      0.00000000
      0.81000000	      1.21079056	     -1.24654630	      0.99210782	     -0.43013612	      0.88432396	     -1.03424497	     22.43286237	     -0.11929141	    -21.53773095	    -18.24745202	     -0.31847812	     -6.71816816	     -0.02899836	     -5.00974160	    -12.71358241	     -0.86963988	     12.32728119	    -15.36190582	     -0.26811584	      8.49415576	    -12.75325128	     -5.32382506	     -8.93511816	      2.89589812	     -4.91911434	      6.66759229	     -7.36754177	     18.97348063	     15.50968385	     89.95437384	      0.00000000	      0.00000000	     17.19626961	     11.97214007	     -8.37492874	     33.21601807	     89.95437384	      0.00000000	      0.00000000
      0.82000000	      0.99778853	     -1.16960640	      1.14018825	     -0.42145762	      0.88376683	     -1.03372578	     22.51451948	     -0.19348420	    -21.10386487	    -18.74836802	     -0.32722075	     -6.73577803	     -0.06536311	     -4.89060783	    -12.70791649	     -0.83667848	     12.02830499	    -15.97601990	     -0.27883415	      8.21511418	    -12.27317668	     -5.21533922	     -8.62713804	      2.81523560	     -4.80427651	      6.35074716	     -7.52726264	     18.89082248	     15.79510326	     89.95437384	      0.00000000	      0.00000000	     16.79578163	     11.76081946	     -8.35901384	     33.44479386	     89.95437384	      0.00000000	      0.00000000
      0.83000000	      1.05828152	     -2.05714565	      1.56870607	     -0.41241902	      0.88389883	     -1.03304171	     22.11954184	      0.81942063	    -21.00653426	    -18.98249936	     -0.33130711	     -6.94214817	     -3.06915005	     -4.52896592	    -12.78630280	      0.50181221	     12.13120859	    -17.10084060	     -0.29846597	      7.98833124	    -12.84257524	     -5.62398937	     -8.51355243	      3.85345629	     -4.99354526	      6.44096839	     -7.68522201	     19.81174236	     15.26809219	     89.95437384	      0.00000000	      0.00000000	     16.36292340	     11.34340944	     -7.88198714	     33.30368997	     89.95437384	      0.00000000	      0.00000000
      0.84000000	      0.95281224	     -2.30645297	      1.64537896	     -0.40330172	      0.88400905	     -1.03240035	     22.10917095	      1.03871488	    -20.78538810	    -19.84444611	     -0.34635092	     -6.57784851	     -3.36676560	     -4.44864635	    -12.88313995	      0.87229416	     11.77184974	    -17.78486605	     -0.31040447	      7.58653370	    -12.36750119	     -5.52354693	     -8.24701485	      4.16021754	     -4.77181910	      6.28934037	     -7.81311196	     19.84620474	     15.05187428	     89.95437384	      0.00000000	      0.00000000	     15.94046668	     11.01636567	     -7.91202797	     33.14597788	     89.95437384	      0.00000000	      0.00000000
      0.85000000	      0.87074219	     -2.69716669	      1.90582976	     -0.39399655	      0.88449600	     -1.03193628	     21.85423723	      1.49646740	    -20.42499980	    -20.41205871	     -0.35625763	     -5.72181941	     -3.76763900	     -4.37707770	    -12.84019162	      1.52133730	     11.57171241	    -18.72062327	     -0.32673651	      7.01956463	    -11.94501296	     -5.45970846	     -7.96206002	      4.64200176	     -4.76315386	      6.18322814	     -7.93850663	     19.98281422	     14.73938175	     89.95437384	      0.00000000	      0.00000000	     15.47046371	     10.62843995	     -7.78552806	     32.79469273	     89.95437384	      0.00000000	      0.00000000
      0.86000000	      0.78234608	     -3.05368396	      1.94320931	     -0.38471150	      0.88525347	     -1.03126738	     21.66468732	      1.94986809	    -19.88350759	    -21.09142164	     -0.36811475	     -5.21935280	     -3.82553099	     -4.30512316	    -12.81299691	      2.00871032	     11.08439720	    -19.62807896	     -0.34257460	      6.33835136	    -11.43121219	     -5.31884932	     -7.71978313	      5.06974681	     -4.50775146	      6.05204069	     -8.08631046	     20.05974777	     14.52482171	     89.95437384	      0.00000000	      0.00000000	     14.92005615	     10.25891920	     -7.74016741	     32.56387955	     89.95437384	      0.00000000	      0.00000000
      0.87000000	      0.76596915	     -3.46776059	      2.05488826	     -0.37509498	      0.88638481	     -1.03065346	     21.19669848	      2.45523629	    -19.54988795	    -21.52912831	     -0.37575417	     -4.28094646	     -4.13424862	     -4.23052759	    -12.74645548	      2.66723893	     10.95059729	    -20.72654939	     -0.36174653	      5.18936508	    -10.76806195	     -5.12573745	     -7.45862523	      5.56555748	     -4.35389831	      6.01399677	     -8.18563632	     20.24331951	     14.01874690	     89.95437384	      0.00000000	      0.00000000	     14.40045150	      9.83887697	     -7.66387037	     31.97412731	     89.95437384	      0.00000000	      0.00000000
      0.88000000	      0.96293916	     -4.41852568	      2.25789653	     -0.36509712	      0.88794941	     -1.02935385	     20.00548117	      3.90392589	    -18.62985322	    -20.89518689	     -0.36468981	     -3.74878271	     -5.63820830	     -3.37352070	    -12.62602393	      4.35485386	     12.06071960	    -22.40601412	     -0.39105872	      3.60411105	    -12.19732663	     -5.51152085	     -7.39147000	      6.60964548	     -4.31934717	      5.87040264	     -8.43724732	     21.14385172	     13.96263580	     89.95437384	      0.00000000	      0.00000000	     13.63200244	      9.40837221	     -6.95979119	     31.64983566	     89.95437384	      0.00000000	      0.00000000
      0.89000000	      0.82153762	     -4.55781887	      2.18803720	     -0.35556494	      0.88911683	     -1.02845593	     19.53699210	      4.16896479	    -18.29591723	    -21.09533605	     -0.36818307	     -2.95730003	     -5.67507340	     -3.15682144	    -12.23933869	      4.74193020	     12.02007785	    -23.74084028	     -0.41435583	      1.96529404	    -11.61740295	     -5.33594443	     -7.00573600	      6.76854826	     -4.03755455	      5.84543001	     -8.46830648	     21.28074221	     13.44367411	     89.95437384	      0.00000000	      0.00000000	     13.06377822	      9.12297084	     -7.15197943	     30.93303858	     89.95437384	      0.00000000	      0.00000000
